<svg width="40" height="40" viewBox="0 0 40 40" fill="none" xmlns="http://www.w3.org/2000/svg">
<rect width="40" height="40" rx="16" fill="#E7E8EA"/>
<path fill-rule="evenodd" clip-rule="evenodd" d="M20 29.625C25.3157 29.625 29.625 25.3157 29.625 20C29.625 14.6843 25.3157 10.375 20 10.375C14.6843 10.375 10.375 14.6843 10.375 20C10.375 25.3157 14.6843 29.625 20 29.625ZM23.8701 15.2439C24.3625 15.0277 24.889 15.4648 24.8033 16.0185L23.535 24.2117C23.4579 24.7098 22.9277 24.9694 22.5155 24.711L18.8409 22.4066C18.4579 22.1664 18.3947 21.6102 18.7131 21.2819L21.9952 17.8981C22.1127 17.7769 21.9628 17.5814 21.8253 17.6764L17.2657 20.8266C16.9286 21.0595 16.5107 21.123 16.1247 21.0001L14.1023 20.3561C13.736 20.2394 13.7102 19.7046 14.0633 19.5496L23.8701 15.2439Z" fill="#898991"/>
</svg>
