<svg width="40" height="40" viewBox="0 0 40 40" fill="none" xmlns="http://www.w3.org/2000/svg">
<rect width="40" height="40" rx="16" fill="#E7E8EA"/>
<path fill-rule="evenodd" clip-rule="evenodd" d="M11.6587 13.2975C11.25 14.0997 11.25 15.1498 11.25 17.25V22.75C11.25 24.8502 11.25 25.9003 11.6587 26.7025C12.0183 27.4081 12.5919 27.9817 13.2975 28.3413C14.0997 28.75 15.1498 28.75 17.25 28.75H22.75C24.8502 28.75 25.9003 28.75 26.7025 28.3413C27.4081 27.9817 27.9817 27.4081 28.3413 26.7025C28.75 25.9003 28.75 24.8502 28.75 22.75V17.25C28.75 15.1498 28.75 14.0997 28.3413 13.2975C27.9817 12.5919 27.4081 12.0183 26.7025 11.6587C25.9003 11.25 24.8502 11.25 22.75 11.25H17.25C15.1498 11.25 14.0997 11.25 13.2975 11.6587C12.5919 12.0183 12.0183 12.5919 11.6587 13.2975ZM24.2359 20.9038C24.1623 21.0912 24.1924 21.2761 24.3271 21.4588C24.4987 21.6515 24.6887 21.8476 24.8808 22.0457C25.4491 22.632 26.0354 23.2367 26.2168 23.8291C26.2808 24.1987 25.9762 24.3362 25.6671 24.3362L24.002 24.3636C23.8978 24.3864 23.7764 24.375 23.6379 24.3294C23.1579 24.1715 22.8445 23.7929 22.5284 23.4112C22.3255 23.1662 22.1215 22.9199 21.8718 22.7297C21.7474 22.635 21.5972 22.5703 21.4523 22.6474C21.1252 22.8193 21.1169 23.1501 21.1085 23.4851C21.1021 23.7383 21.0957 23.9939 20.9515 24.1852C20.7611 24.3965 20.3919 24.3697 20.0906 24.3478C20.0062 24.3417 19.927 24.3359 19.8587 24.3359C16.7431 24.4477 14.7118 19.9814 13.7835 17.6772C13.6725 17.3659 13.8475 17.2114 14.1608 17.2114L15.943 17.1977C16.1335 17.231 16.3143 17.3437 16.3853 17.5402C16.6522 18.193 17.6236 20.5478 18.2261 20.5478C18.8285 20.5478 18.6777 18.1484 18.4732 17.6979C18.3648 17.5426 18.1806 17.4444 17.9203 17.4034C17.864 17.3944 17.8749 17.3395 17.9529 17.239C18.2261 16.8874 19.8999 16.7834 20.6328 16.9581C20.7777 16.9964 20.9194 17.0644 20.9841 17.215C21.1307 17.5586 21.097 18.1371 21.0629 18.7228C21.0207 19.4486 20.9778 20.1854 21.2766 20.4999C21.3919 20.5301 21.455 20.5336 21.5563 20.452C22.3259 19.6759 22.851 18.4684 23.2801 17.4789C23.3353 17.3335 23.4234 17.262 23.5597 17.2288C23.7967 17.2288 24.0532 17.2299 24.3176 17.231C24.8719 17.2333 25.4612 17.2357 25.9794 17.2288C26.7811 17.2288 25.6211 18.8731 24.8392 19.9814C24.5346 20.4132 24.2873 20.7637 24.2359 20.9038Z" fill="#898991"/>
</svg>
