<svg width="40" height="40" viewBox="0 0 40 40" fill="none" xmlns="http://www.w3.org/2000/svg">
<rect width="40" height="40" rx="16" fill="#E7E8EA"/>
<path fill-rule="evenodd" clip-rule="evenodd" d="M12.8175 12.2351C11.4028 12.3087 10.2665 13.4717 10.1746 14.9558C10.0867 16.3777 10 18.1272 10 19.5C10 20.8728 10.0867 22.6223 10.1746 24.0442C10.2665 25.5283 11.4028 26.6913 12.8175 26.7649C14.866 26.8715 17.7939 27 20 27C22.2061 27 25.134 26.8715 27.1825 26.7649C28.5972 26.6913 29.7335 25.5283 29.8254 24.0442C29.9133 22.6223 30 20.8728 30 19.5C30 18.1272 29.9133 16.3777 29.8254 14.9558C29.7335 13.4717 28.5972 12.3087 27.1825 12.2351C25.134 12.1285 22.2061 12 20 12C17.7939 12 14.866 12.1285 12.8175 12.2351ZM23.5714 19.5L17.8571 22.5V16.5L23.5714 19.5Z" fill="#898991"/>
</svg>
